# xmcd
#
# Track frame offsets:
# 150
# 17394
# 39342
# 51363
# 73268
# 85981
# 107602
# 130832
# 149920
# 163863
# 183752
# 195383
# 215954
# 230322
# 258103
#
# Disc length: 3622 seconds
#
# Revision: 1
# Processed by: cddbd v1.5.2PL0 Copyright (c) Steve Scherf et al.
# Submitted via: CedeCatalogueitor 2.6.0.6 http://personales.ya.com/cdcatalogueitor
#
DISCID=d50e240f
DTITLE=William Clarke - Groove Time
DYEAR=1900
DGENRE=
TTITLE0=Daddy Pinnochio
TTITLE1=Saturday Night Blues
TTITLE2=The Complainer's Boogie Woogie
TTITLE3=This Is My Last Goodbye
TTITLE4=Telephone Is Ringing
TTITLE5=A Good Girl Is Hard To Find
TTITLE6=The War Is Over
TTITLE7=Broke And Hungry
TTITLE8=Somebody Is Calling Me Home
TTITLE9=Blowin' The Family Jewels
TTITLE10=Watch Dog
TTITLE11=Saint Or Sinner
TTITLE12=Chicago Blues
TTITLE13=Bedroom Boogie
TTITLE14=Your Love Is Real
EXTD=
EXTT0=
EXTT1=
EXTT2=
EXTT3=
EXTT4=
EXTT5=
EXTT6=
EXTT7=
EXTT8=
EXTT9=
EXTT10=
EXTT11=
EXTT12=
EXTT13=
EXTT14=
PLAYORDER=
